<svg xmlns="http://www.w3.org/2000/svg" viewBox="0 0 589 549" width="589" height="549" role="img" aria-label="Skill Radar" font-family="ui-sans-serif,-apple-system,Segoe UI,Helvetica,Arial,sans-serif"><text x="294.5" y="25" text-anchor="middle" font-size="15" font-weight="700" fill="#1f2328">Skill Radar</text><g transform="translate(266.2,289.0)"><polygon points="0.0,-212.0 149.9,-149.9 212.0,0.0 149.9,149.9 0.0,212.0 -149.9,149.9 -212.0,0.0 -149.9,-149.9" fill="none" stroke="#d0d7de" stroke-width="1" opacity="0.85"/><polygon points="0.0,-159.0 112.4,-112.4 159.0,0.0 112.4,112.4 0.0,159.0 -112.4,112.4 -159.0,0.0 -112.4,-112.4" fill="none" stroke="#d0d7de" stroke-width="1" opacity="0.72"/><polygon points="0.0,-106.0 75.0,-75.0 106.0,0.0 75.0,75.0 0.0,106.0 -75.0,75.0 -106.0,0.0 -75.0,-75.0" fill="none" stroke="#d0d7de" stroke-width="1" opacity="0.60"/><polygon points="0.0,-53.0 37.5,-37.5 53.0,0.0 37.5,37.5 0.0,53.0 -37.5,37.5 -53.0,0.0 -37.5,-37.5" fill="none" stroke="#d0d7de" stroke-width="1" opacity="0.47"/><line x1="0" y1="0" x2="0.0" y2="-212.0" stroke="#e6eaef" stroke-width="1"/><line x1="0" y1="0" x2="149.9" y2="-149.9" stroke="#e6eaef" stroke-width="1"/><line x1="0" y1="0" x2="212.0" y2="0.0" stroke="#e6eaef" stroke-width="1"/><line x1="0" y1="0" x2="149.9" y2="149.9" stroke="#e6eaef" stroke-width="1"/><line x1="0" y1="0" x2="0.0" y2="212.0" stroke="#e6eaef" stroke-width="1"/><line x1="0" y1="0" x2="-149.9" y2="149.9" stroke="#e6eaef" stroke-width="1"/><line x1="0" y1="0" x2="-212.0" y2="0.0" stroke="#e6eaef" stroke-width="1"/><line x1="0" y1="0" x2="-149.9" y2="-149.9" stroke="#e6eaef" stroke-width="1"/><g><animateTransform attributeName="transform" type="scale" values="0.04;1" dur="1.1s" calcMode="spline" keyTimes="0;1" keySplines="0.22 1 0.36 1" fill="freeze"/><polygon points="0.0,-195.0 122.9,-122.9 201.4,0.0 122.9,122.9 0.0,165.4 -131.9,131.9 -182.3,0.0 -119.9,-119.9" fill="#2da44e" fill-opacity="0.22" stroke="#1a7f37" stroke-width="2.5" stroke-linejoin="round"/><circle cx="0.0" cy="-195.0" r="3.6" fill="#116329" stroke="#1a7f37" stroke-width="1.2"/><circle cx="122.9" cy="-122.9" r="3.6" fill="#116329" stroke="#1a7f37" stroke-width="1.2"/><circle cx="201.4" cy="0.0" r="3.6" fill="#116329" stroke="#1a7f37" stroke-width="1.2"/><circle cx="122.9" cy="122.9" r="3.6" fill="#116329" stroke="#1a7f37" stroke-width="1.2"/><circle cx="0.0" cy="165.4" r="3.6" fill="#116329" stroke="#1a7f37" stroke-width="1.2"/><circle cx="-131.9" cy="131.9" r="3.6" fill="#116329" stroke="#1a7f37" stroke-width="1.2"/><circle cx="-182.3" cy="0.0" r="3.6" fill="#116329" stroke="#1a7f37" stroke-width="1.2"/><circle cx="-119.9" cy="-119.9" r="3.6" fill="#116329" stroke="#1a7f37" stroke-width="1.2"/></g><text x="0.0" y="-237.0" text-anchor="middle" font-size="13" font-weight="600" fill="#1f2328">Java</text><text x="164.0" y="-169.0" text-anchor="start" font-size="13" font-weight="600" fill="#1f2328">Spring Boot</text><text x="232.0" y="4.0" text-anchor="start" font-size="13" font-weight="600" fill="#1f2328">React / TS</text><text x="164.0" y="178.0" text-anchor="start" font-size="13" font-weight="600" fill="#1f2328">REST APIs</text><text x="0.0" y="246.0" text-anchor="middle" font-size="13" font-weight="600" fill="#1f2328">Databases</text><text x="-164.0" y="178.0" text-anchor="end" font-size="13" font-weight="600" fill="#1f2328">SQL</text><text x="-232.0" y="4.0" text-anchor="end" font-size="13" font-weight="600" fill="#1f2328">DSA</text><text x="-164.0" y="-169.0" text-anchor="end" font-size="13" font-weight="600" fill="#1f2328">Python</text></g></svg>