<svg xmlns="http://www.w3.org/2000/svg" viewBox="0 0 650 526" width="650" height="526" role="img" aria-label="Skill Radar" font-family="ui-sans-serif,-apple-system,Segoe UI,Helvetica,Arial,sans-serif"><text x="325.0" y="25" text-anchor="middle" font-size="15" font-weight="700" fill="#1f2328">Skill Radar</text><g transform="translate(332.9,289.0)"><polygon points="0.0,-212.0 165.7,-132.2 206.7,47.2 92.0,191.0 -92.0,191.0 -206.7,47.2 -165.7,-132.2" fill="none" stroke="#d0d7de" stroke-width="1" opacity="0.85"/><polygon points="0.0,-159.0 124.3,-99.1 155.0,35.4 69.0,143.3 -69.0,143.3 -155.0,35.4 -124.3,-99.1" fill="none" stroke="#d0d7de" stroke-width="1" opacity="0.72"/><polygon points="0.0,-106.0 82.9,-66.1 103.3,23.6 46.0,95.5 -46.0,95.5 -103.3,23.6 -82.9,-66.1" fill="none" stroke="#d0d7de" stroke-width="1" opacity="0.60"/><polygon points="0.0,-53.0 41.4,-33.0 51.7,11.8 23.0,47.8 -23.0,47.8 -51.7,11.8 -41.4,-33.0" fill="none" stroke="#d0d7de" stroke-width="1" opacity="0.47"/><line x1="0" y1="0" x2="0.0" y2="-212.0" stroke="#e6eaef" stroke-width="1"/><line x1="0" y1="0" x2="165.7" y2="-132.2" stroke="#e6eaef" stroke-width="1"/><line x1="0" y1="0" x2="206.7" y2="47.2" stroke="#e6eaef" stroke-width="1"/><line x1="0" y1="0" x2="92.0" y2="191.0" stroke="#e6eaef" stroke-width="1"/><line x1="0" y1="0" x2="-92.0" y2="191.0" stroke="#e6eaef" stroke-width="1"/><line x1="0" y1="0" x2="-206.7" y2="47.2" stroke="#e6eaef" stroke-width="1"/><line x1="0" y1="0" x2="-165.7" y2="-132.2" stroke="#e6eaef" stroke-width="1"/><g><animateTransform attributeName="transform" type="scale" values="0.04;1" dur="1.1s" calcMode="spline" keyTimes="0;1" keySplines="0.22 1 0.36 1" fill="freeze"/><polygon points="0.0,-186.6 135.9,-108.4 173.6,39.6 75.4,156.6 -71.7,149.0 -157.1,35.9 -142.5,-113.7" fill="#2da44e" fill-opacity="0.22" stroke="#1a7f37" stroke-width="2.5" stroke-linejoin="round"/><circle cx="0.0" cy="-186.6" r="3.6" fill="#116329" stroke="#1a7f37" stroke-width="1.2"/><circle cx="135.9" cy="-108.4" r="3.6" fill="#116329" stroke="#1a7f37" stroke-width="1.2"/><circle cx="173.6" cy="39.6" r="3.6" fill="#116329" stroke="#1a7f37" stroke-width="1.2"/><circle cx="75.4" cy="156.6" r="3.6" fill="#116329" stroke="#1a7f37" stroke-width="1.2"/><circle cx="-71.7" cy="149.0" r="3.6" fill="#116329" stroke="#1a7f37" stroke-width="1.2"/><circle cx="-157.1" cy="35.9" r="3.6" fill="#116329" stroke="#1a7f37" stroke-width="1.2"/><circle cx="-142.5" cy="-113.7" r="3.6" fill="#116329" stroke="#1a7f37" stroke-width="1.2"/></g><text x="0.0" y="-237.0" text-anchor="middle" font-size="13" font-weight="600" fill="#1f2328">Java</text><text x="181.4" y="-149.6" text-anchor="start" font-size="13" font-weight="600" fill="#1f2328">Spring Boot</text><text x="226.2" y="55.6" text-anchor="start" font-size="13" font-weight="600" fill="#1f2328">React / TS</text><text x="100.7" y="223.0" text-anchor="start" font-size="13" font-weight="600" fill="#1f2328">REST APIs</text><text x="-100.7" y="223.0" text-anchor="end" font-size="13" font-weight="600" fill="#1f2328">Databases</text><text x="-226.2" y="55.6" text-anchor="end" font-size="13" font-weight="600" fill="#1f2328">Offline Sync</text><text x="-181.4" y="-149.6" text-anchor="end" font-size="13" font-weight="600" fill="#1f2328">DSA</text></g></svg>